<svg id="Layer_1" data-name="Layer 1" xmlns="http://www.w3.org/2000/svg" viewBox="0 0 173.35 168.75">
  <defs>
    <style>
      .cls-1 {
        fill: #ff05c1;
      }

      .cls-2 {
        fill: #fff;
      }
    </style>
  </defs>
  <title>hart</title>
  <path class="cls-1" d="M421.312,88a47.136,47.136,0,0,0-39.375,21.189,47.188,47.188,0,1,0,0,52A47.186,47.186,0,1,0,421.312,88Z" transform="translate(-295.319 -88)"/>
  <path class="cls-1" d="M374.125,256.75" transform="translate(-295.319 -88)"/>
  <path class="cls-1" d="M295.375,135.188c-1.522,37.813,28.557,61.263,41.25,69.688,15.258,10.127,39.938,16.2,43.125,24.375,2.239,5.743-7.132,12.772-6.25,13.75,2.67,2.959,99.752-48.047,95-107.812" transform="translate(-295.319 -88)"/>
  <path class="cls-2" d="M420.839,99.687c-5.043-.394-11.463.584-12.41,6.706-0.774,5,3.6,7.907,7.912,8.677,7.881,1.408,15.1,1.892,21.973,6.592a30.084,30.084,0,0,1,13.036,22.679,1.5,1.5,0,0,0,3,0c0.678-22.6-14.654-44.608-38.538-45.232-1.931-.05-1.93,2.95,0,3,22.278,0.582,36.165,21.324,35.538,42.232h3a33.255,33.255,0,0,0-14.521-25.269,39.864,39.864,0,0,0-14.981-5.992c-2.984-.561-6.315-0.305-9.2-1.178-4.53-1.368-5.243-7.55-.218-9.086a15.233,15.233,0,0,1,5.415-.128c1.925,0.15,1.915-2.851,0-3h0Z" transform="translate(-295.319 -88)"/>
</svg>
