<svg id="Layer_1" data-name="Layer 1" xmlns="http://www.w3.org/2000/svg" viewBox="0 0 199.61 200.71"><title>storm</title><path d="M177.14,56.21a31.87,31.87,0,0,0-44.26-35.6,25.94,25.94,0,0,0-50.6-.75A34.09,34.09,0,0,0,38.6,40.27q-.23.63-.44,1.28a28.12,28.12,0,1,0-5.53,54A46.27,46.27,0,0,0,94,117.5a46.23,46.23,0,0,0,75.15-10.86A25.54,25.54,0,1,0,179,56.51Q178.08,56.32,177.14,56.21Z" fill="#f9f9f9"/><path d="M94.06,51.09,66,77.57a1.51,1.51,0,0,0,.66,2.51l14.87,2.75c1.86.34,5.9.32,7.44,1.38q2.93,0,1.06,3.7l-3,2.46L63,110a1.51,1.51,0,0,0,.3,2.36l14.42,6.37c4,1.75,14.32,4.1,10.85,10.21-2.21,3.89-8.08,6.86-11.62,9.54l-11.85,9c-.79.6-1.15,2.08,0,2.59a148.9,148.9,0,0,0,24.72,8.48L89.15,156a453.05,453.05,0,0,1-47.31,41.78c-1.51,1.16,0,3.77,1.51,2.59a458.41,458.41,0,0,0,47.92-42.24,1.51,1.51,0,0,0-.66-2.51,144.57,144.57,0,0,1-24-8.18v2.59l17-12.91c3.45-2.61,8.82-5.78,9.29-10.62.41-4.18-3.25-5.75-6.49-7.19-7.2-3.21-14.42-6.37-21.63-9.55l.3,2.36L81.65,98.62c3-2.46,6-4.88,9-7.37,1.48-1.24,3.33-2.44,3.91-4.4,1.12-3.81-2.81-5.13-5.72-5.72-7.1-1.43-14.26-2.64-21.38-4l.66,2.51,28-26.47c1.41-1.33-.72-3.45-2.12-2.12h0Z"/><path d="M122.36,76.89Q114,83.34,106.25,90.42c-2,1.86-8.77,6.07-7.32,9.66.46,1.13,1.58,1.5,2.59,2,3.32,1.51,7.41,2.2,10.93,3.1q4.59,1.16,9.23,2.12c1.64.34,4,.33,5.58,1.07q2.57-.51,1.79,1.63a2.09,2.09,0,0,1-1.47,2.55h0c-4.24,5.19-10.8,9.27-15.8,13.76-2,1.82-4.33,4-1.7,6.38,2.37,2.15,6.5,3.29,9.38,4.72,2.36,1.17,3.35,1.07,3.78,4s-.57,3.28-2.34,5.23l-16.09,17.66c-1.3,1.42.82,3.55,2.12,2.12L123,148.73c2.37-2.6,7-6.42,4.11-10.25-1.37-1.82-4.24-2.73-6.15-3.68-1.42-.7-8.47-3.24-8.55-4.7s6.77-6.3,7.95-7.32l8.62-7.51c2.07-1.8,6.4-5.13,3.69-8.28-1.38-1.61-4.58-1.55-6.44-1.9q-5.59-1-11.11-2.39c-3.31-.81-8-1.31-11-3-2.08-1.19-2.31-.42-.43-2.79a36.15,36.15,0,0,1,4-3.76c5.39-5,11-9.65,16.79-14.14,1.52-1.18-.61-3.29-2.12-2.12h0Z"/></svg>