<svg id="Layer_1" data-name="Layer 1" xmlns="http://www.w3.org/2000/svg" viewBox="0 0 254.03 243.92"><title>sun</title><circle cx="121.32" cy="120.48" r="71.39" fill="#fff6a1"/><path d="M118.94,1.45v25a1.5,1.5,0,1,0,3,0v-25a1.5,1.5,0,1,0-3,0Z" fill="#fff6a1"/><path d="M76,16.85a78.52,78.52,0,0,0,9.11,21.4c1,1.64,3.6.14,2.59-1.51a75.68,75.68,0,0,1-8.8-20.68,1.5,1.5,0,0,0-2.89.8h0Z" fill="#fff6a1"/><path d="M19.12,37.75l17.32,18.7c1.31,1.42,3.43-.71,2.12-2.12L21.24,35.62c-1.31-1.42-3.43.71-2.12,2.12h0Z" fill="#fff6a1"/><path d="M4.07,90.68l21,3.24c1.89.29,2.7-2.6.8-2.89l-21-3.24c-1.89-.29-2.7,2.6-.8,2.89h0Z" fill="#fff6a1"/><path d="M1.45,139.75l29,1.2c1.93.08,1.93-2.92,0-3l-29-1.2c-1.93-.08-1.93,2.92,0,3Z" fill="#fff6a1"/><path d="M14.57,187.31,39,171.41c1.61-1.05.11-3.65-1.51-2.59L13.05,184.72c-1.61,1.05-.11,3.65,1.51,2.59Z" fill="#fff6a1"/><path d="M53,222.35l13.86-21.09c1.06-1.62-1.53-3.12-2.59-1.51L50.37,220.84C49.3,222.46,51.9,224,53,222.35Z" fill="#fff6a1"/><path d="M97.08,242.93l9.93-24c.74-1.78-2.17-2.56-2.89-.8l-9.93,24c-.74,1.78,2.17,2.56,2.89.8Z" fill="#fff6a1"/><path d="M160.74,239.69A99,99,0,0,1,153,219c-.48-1.87-3.37-1.08-2.89.8a102.55,102.55,0,0,0,8.08,21.37c.88,1.72,3.47.2,2.59-1.51h0Z" fill="#fff6a1"/><path d="M202.18,217.18a130.49,130.49,0,0,1-17.1-14.37,1.5,1.5,0,0,0-2.12,2.12,135,135,0,0,0,17.71,14.84c1.58,1.11,3.08-1.49,1.51-2.59Z" fill="#fff6a1"/><path d="M241.22,192.11a114.93,114.93,0,0,0-30.41-15c-1.84-.59-2.63,2.3-.8,2.89a112.21,112.21,0,0,1,29.7,14.73c1.59,1.1,3.09-1.5,1.51-2.59h0Z" fill="#fff6a1"/><path d="M166,8.05,156.8,33c-.67,1.81,2.23,2.6,2.89.8l9.2-24.93c.67-1.81-2.23-2.6-2.89-.8Z" fill="#fff6a1"/><path d="M209.31,30.3A85.44,85.44,0,0,0,190.5,50.92c-1.06,1.62,1.54,3.13,2.59,1.51a83,83,0,0,1,18.34-20c1.52-1.19-.62-3.3-2.12-2.12Z" fill="#fff6a1"/><path d="M240,64.63A179.33,179.33,0,0,1,212.61,80c-1.76.79-.23,3.38,1.51,2.59a179.33,179.33,0,0,0,27.4-15.36c1.59-1.08.09-3.68-1.51-2.59h0Z" fill="#fff6a1"/><path d="M219.77,113.54a111.72,111.72,0,0,1,27.66-1.5c1.93.13,1.92-2.87,0-3a115.07,115.07,0,0,0-28.46,1.6c-1.9.34-1.09,3.23.8,2.89h0Z" fill="#fff6a1"/><path d="M220,144q16.2,2.57,32.13,6.43c1.88.45,2.68-2.44.8-2.89q-15.94-3.85-32.13-6.43c-1.89-.3-2.7,2.59-.8,2.89Z" fill="#fff6a1"/></svg>