<svg id="Layer_1" data-name="Layer 1" xmlns="http://www.w3.org/2000/svg" viewBox="0 0 237.06 169.96"><title>sunset</title><circle cx="118.53" cy="58.75" r="58.75" fill="#fcd8b6"/><path d="M1.33,76.81C5,85,12.46,91.37,21.65,92c11.05.82,19-6.36,27.79-11.75,3.8-2.33,5-2.46,7.61,1,2.93,3.81,5.32,8.15,9.45,10.85,9.35,6.11,19.47,1.35,27.4-4.71,3-2.26,7.66-7.18,11.66-7.05,3.33.1,6.26,4.84,8.55,6.84,8.65,7.55,19.39,7.46,28.07,0,3.1-2.66,5.64-6.61,9.29-8.53,4.15-2.18,7.44.32,10.54,3,6.81,6,15,11.78,24.07,6.43,3.85-2.27,6.61-5.76,9.67-8.91,3.28-3.38,4.43-3.34,8.43-.48,4.47,3.2,8.36,7.09,13.72,8.82,6.26,2,11.74.57,16.67-3.58C242,77.77,231.29,67.21,224,73.39c-1.67,1.41-6.84-3.45-8.09-4.43-3.8-3-7.79-6.18-12.62-7.25-9-2-15.1,3.75-20.77,9.8-1.21,1.29-3,3.88-4.8,3.64-2.67-.35-6.52-5.35-8.6-7-7.56-5.88-17.53-7.26-25.87-2-3.6,2.27-6.42,5.41-9.42,8.37-2.83,2.78-5.45,4.83-9.07,2-3.33-2.57-5.77-6-9.37-8.34a18,18,0,0,0-13.22-2.5c-9.67,1.84-15,10.76-23.89,13.86-3.4,1.19-4.79-1.1-6.63-3.65-2.54-3.52-4.93-7.3-8.59-9.77-10.2-6.93-19.91.48-28.45,6.18-3.51,2.34-8.15,5.47-12.62,4.66-4-.73-6.15-4.39-7.67-7.8-1.67-3.73-7-4.54-10.26-2.69C.18,68.72-.32,73.12,1.32,76.8h0Z" fill="#93ffee"/><path d="M1.33,151.81C5,160,12.46,166.37,21.65,167c11.05.82,19-6.36,27.79-11.75,3.8-2.33,5-2.46,7.61,1,2.93,3.81,5.32,8.15,9.45,10.85,9.35,6.11,19.47,1.35,27.4-4.71,3-2.26,7.66-7.18,11.66-7.05,3.33.1,6.26,4.84,8.55,6.84,8.65,7.55,19.39,7.46,28.07,0,3.1-2.66,5.64-6.61,9.29-8.53,4.15-2.18,7.44.32,10.54,3,6.81,6,15,11.78,24.07,6.43,3.85-2.27,6.61-5.76,9.67-8.91,3.28-3.38,4.43-3.34,8.43-.48,4.47,3.2,8.36,7.09,13.72,8.82,6.26,2,11.74.57,16.67-3.58,7.39-6.23-3.26-16.79-10.61-10.61-1.67,1.41-6.84-3.45-8.09-4.43-3.8-3-7.79-6.18-12.62-7.25-9-2-15.1,3.75-20.77,9.8-1.21,1.29-3,3.88-4.8,3.64-2.67-.35-6.52-5.35-8.6-7-7.56-5.88-17.53-7.26-25.87-2-3.6,2.27-6.42,5.41-9.42,8.37-2.83,2.78-5.45,4.83-9.07,2-3.33-2.57-5.77-6-9.37-8.34a18,18,0,0,0-13.22-2.5c-9.67,1.84-15,10.76-23.89,13.86-3.4,1.19-4.79-1.1-6.63-3.65-2.54-3.52-4.93-7.3-8.59-9.77-10.2-6.93-19.91.48-28.45,6.18-3.51,2.34-8.15,5.47-12.62,4.66-4-.73-6.15-4.39-7.67-7.8-1.67-3.73-7-4.54-10.26-2.69-3.83,2.18-4.33,6.59-2.69,10.26h0Z" fill="#93ffee"/><path d="M222.78,107.24c-3.45,7.73-8.92,9.63-16.46,5.5-8.4-4.6-16-13.3-26.59-11.06a18.3,18.3,0,0,0-9.86,6.36c-2.33,2.72-4.1,6.93-7,9.08-3.05,2.27-6.75-.76-9.42-2.63-3.91-2.73-7.42-6.05-11.7-8.22-8.77-4.44-17-3.23-24.23,3.32-2.35,2.12-5.22,6.63-8.78,6.5s-6.88-5.09-9.28-7.38c-6.91-6.6-16-10-25.26-6.23-4,1.63-7.11,4.34-10.3,7.13-2,1.71-3.81,4.45-6.3,3-2.89-1.71-5-5.49-7.49-7.73-3.43-3.08-7.48-5.56-12.24-5.56-5.24,0-9.77,2.44-13.86,5.5-1.55,1.16-8.91,8.29-10.9,6.61-7.34-6.18-18,4.38-10.61,10.61,9.22,7.76,18.89,3.82,27.39-2.9,2.07-1.63,5.5-5.32,8.3-4.64s5.9,5.94,8,7.94c7.05,6.63,15.52,7.65,23.47,1.78,3.14-2.32,5.9-5.8,9.42-7.55,4.45-2.21,7.78.69,10.85,3.76,7.21,7.21,15.33,13.56,26,9.26,4.5-1.81,7.68-5.17,11.1-8.48,3.62-3.49,5.64-3.06,9.91-.31,8.26,5.34,15.78,13.64,26.62,11.95a18.68,18.68,0,0,0,11.17-6.51c2-2.34,4.74-8.71,7.81-9.84,3.5-1.29,10.39,5.61,13.09,7.36,5,3.21,10.45,5.7,16.4,6.22,10.42.9,19.54-6,23.65-15.24,1.66-3.73,1-8-2.69-10.26-3.18-1.91-8.61-1-10.26,2.69h0Z" fill="#93ffee"/></svg>